<svg width="56" height="232" viewBox="0 0 56 232" fill="none" xmlns="http://www.w3.org/2000/svg">
<g clip-path="url(#clip0_222_530)">
<mask id="mask0_222_530" style="mask-type:luminance" maskUnits="userSpaceOnUse" x="19" y="184" width="18" height="48">
<path d="M19 232V184H37V232H19Z" fill="white"/>
</mask>
<g mask="url(#mask0_222_530)">
<path d="M19 232V184H37V232H19Z" fill="#1F1F1F" stroke="black" stroke-width="12" stroke-linecap="round"/>
</g>
<path d="M35.0564 192.266H42V183.733H35.0564V192.266Z" fill="#8D8B8B" stroke="black" stroke-width="3" stroke-miterlimit="10"/>
<path d="M16 175.844H22.9436V156.711H16V175.844Z" fill="#2B2B2B" stroke="black" stroke-width="4.49239" stroke-miterlimit="10"/>
<mask id="mask1_222_530" style="mask-type:luminance" maskUnits="userSpaceOnUse" x="17" y="138" width="22" height="61">
<path d="M17.2036 138V197.144L18.7459 198.26H37.2539L38.7962 197.144V138H17.2036Z" fill="white"/>
</mask>
<g mask="url(#mask1_222_530)">
<path d="M17.2036 138V197.144L18.7459 198.26H37.2539L38.7962 197.144V138H17.2036Z" fill="#8D8B8B" stroke="black" stroke-width="7.21921" stroke-miterlimit="10"/>
</g>
<path d="M23.1834 142.541H32.8164V129.46H23.1834V142.541Z" fill="#161616" stroke="black" stroke-width="4.0518" stroke-miterlimit="10"/>
<path d="M26 200V148H30V200H26Z" fill="#181818"/>
<path d="M24.0564 192.266H31.9436V183.733H24.0564V192.266Z" fill="#3B3737" stroke="black" stroke-width="3" stroke-miterlimit="10"/>
<path d="M24.5189 148H31.4812V140H24.5189V148Z" fill="#3B3737" stroke="black" stroke-width="3" stroke-miterlimit="10"/>
<path d="M37 134H19V108.637L22.562 107H33.438L37 108.637V134Z" fill="#272727" stroke="black" stroke-width="4" stroke-miterlimit="10"/>
<path d="M21 174V158H35V174H21Z" fill="#0E0E0E"/>
<path d="M26 176L24 173.5V160H32V173.5L30 176H26Z" fill="black"/>
<path d="M23 116.277V105H33V116.277L30.1295 118H25.8705L23 116.277Z" fill="black"/>
</g>
<defs>
<clipPath id="clip0_222_530">
<rect width="56" height="232" fill="white"/>
</clipPath>
</defs>
</svg>
