<svg width="80" height="176" viewBox="0 0 80 176" fill="none" xmlns="http://www.w3.org/2000/svg">
<g clip-path="url(#clip0_224_126)">
<path d="M52 130.053V141.476C52 141.587 51.9907 141.698 51.9722 141.808L48.0225 165.265V170.5C48.0225 171.605 47.1271 172.5 46.0225 172.5H36.5C35.3954 172.5 34.5 171.605 34.5 170.5V165.265L30.0353 141.828C30.0118 141.705 30 141.58 30 141.454V130.053V92.5C30 91.3954 30.8954 90.5 32 90.5H50C51.1046 90.5 52 91.3954 52 92.5V130.053Z" fill="#682F02"/>
<path d="M48.0225 165.265L51.9722 141.808C51.9907 141.698 52 141.587 52 141.476V130.053V92.5C52 91.3954 51.1046 90.5 50 90.5H32C30.8954 90.5 30 91.3954 30 92.5V130.053V141.454C30 141.58 30.0118 141.705 30.0353 141.828L34.5 165.265M48.0225 165.265H34.5M48.0225 165.265V170.5C48.0225 171.605 47.1271 172.5 46.0225 172.5H36.5C35.3954 172.5 34.5 171.605 34.5 170.5V165.265" stroke="black" stroke-width="8" stroke-miterlimit="10"/>
<path d="M22 71H61L56.0116 91.5L61 112H22L25.6279 91.5L22 71Z" fill="#D9D9D9" stroke="black" stroke-width="8"/>
<path d="M58 41.024C58 37.697 54.1944 35 49.5 35C44.8056 35 41 37.697 41 41.024V112.976C41 116.303 44.8056 119 49.5 119C54.1944 119 58 116.303 58 112.976V41.024Z" fill="#6C6B6B" stroke="black" stroke-width="8" stroke-miterlimit="10"/>
<path d="M41 41.024C41 37.697 37.1944 35 32.5 35C27.8056 35 24 37.697 24 41.024V112.976C24 116.303 27.8056 119 32.5 119C37.1944 119 41 116.303 41 112.976V41.024Z" fill="#6C6B6B" stroke="black" stroke-width="8" stroke-miterlimit="10"/>
<path d="M25 99C37.5812 101.072 44.7759 101.28 58 99V107C44.4124 109.765 37.2914 109.36 25 107V99Z" fill="black" fill-opacity="0.69697"/>
<rect x="32" y="44" width="18" height="8" fill="black" fill-opacity="0.69697"/>
<rect x="32" y="129" width="18" height="4" fill="black" fill-opacity="0.69697"/>
<rect x="38" y="140" width="6" height="6" fill="black" fill-opacity="0.6"/>
</g>
<defs>
<clipPath id="clip0_224_126">
<rect width="80" height="176" fill="white"/>
</clipPath>
</defs>
</svg>
