<svg width="91" height="155" viewBox="0 0 91 155" fill="none" xmlns="http://www.w3.org/2000/svg">
<path fill-rule="evenodd" clip-rule="evenodd" d="M60 121L58.4783 126H33.5217L32 121H60Z" fill="#D9D9D9" stroke="black" stroke-width="8" stroke-miterlimit="10" stroke-linejoin="round"/>
<path fill-rule="evenodd" clip-rule="evenodd" d="M57 121L55.8043 151H36.1957L35 121H57Z" fill="#272B34" stroke="black" stroke-width="8" stroke-miterlimit="10" stroke-linejoin="round"/>
<path fill-rule="evenodd" clip-rule="evenodd" d="M50.5 7V51H40V7H50.5Z" fill="#323743" stroke="black" stroke-width="4.07263" stroke-miterlimit="10" stroke-linejoin="round"/>
<path fill-rule="evenodd" clip-rule="evenodd" d="M57.2654 62V87H34.2654V62H57.2654Z" fill="#D9D9D9" stroke="black" stroke-width="8" stroke-miterlimit="10" stroke-linejoin="round"/>
<path fill-rule="evenodd" clip-rule="evenodd" d="M58 22L57.0385 28H33.9615L33 22H58Z" fill="#D9D9D9" stroke="black" stroke-width="8" stroke-miterlimit="10" stroke-linejoin="round"/>
<path fill-rule="evenodd" clip-rule="evenodd" d="M54.2654 15V70H36.2654V15H54.2654Z" fill="#323743" stroke="black" stroke-width="8" stroke-miterlimit="10" stroke-linejoin="round"/>
<path opacity="0.65" d="M40.209 62H49.5005" stroke="black" stroke-width="4" stroke-miterlimit="10" stroke-linecap="square"/>
<path opacity="0.65" d="M40.0742 54H49.3657" stroke="black" stroke-width="4" stroke-miterlimit="10" stroke-linecap="square"/>
<path opacity="0.65" d="M40.1907 46H49.4822" stroke="black" stroke-width="4" stroke-miterlimit="10" stroke-linecap="square"/>
<path opacity="0.65" d="M40.0562 38H49.3477" stroke="black" stroke-width="4" stroke-miterlimit="10" stroke-linecap="square"/>
<path opacity="0.65" d="M40 30H49.2915" stroke="black" stroke-width="4" stroke-miterlimit="10" stroke-linecap="square"/>
<path d="M41.2085 23.4883H50.5" stroke="black" stroke-width="6" stroke-miterlimit="10" stroke-linecap="square"/>
<path fill-rule="evenodd" clip-rule="evenodd" d="M56 70V115.662C56 129.446 36 129.446 36 115.662V70H56Z" fill="#444A58" stroke="black" stroke-width="8" stroke-miterlimit="10" stroke-linejoin="round"/>
<circle cx="46" cy="113" r="3" fill="#272B34"/>
</svg>
