<?xml version="1.0" encoding="UTF-8" standalone="no"?>
<svg
   width="144.00003"
   height="47.99976"
   viewBox="0 0 38.100219 12.699687"
   version="1.1"
   id="svg31"
   xml:space="preserve"
   xmlns="http://www.w3.org/2000/svg"
   xmlns:svg="http://www.w3.org/2000/svg"
   xmlns:rdf="http://www.w3.org/1999/02/22-rdf-syntax-ns#"
   xmlns:cc="http://creativecommons.org/ns#"><metadata
     id="metadata35"><rdf:RDF><cc:Work
         rdf:about="" /></rdf:RDF></metadata><defs
     id="defs11" /><g
     id="g1"
     transform="translate(0,9.2115863e-5)"><path
       style="fill:none;stroke:#000000;stroke-width:2.11668;stroke-linecap:round;stroke-linejoin:round;stroke-miterlimit:4;stroke-dasharray:none;stroke-opacity:1"
       d="m 10.583403,2.1163769 v 6.3500435 c 0,0 -1.0583366,3.1750186 1.058335,3.1750186"
       id="path2456" /><path
       id="path2463"
       d="m 27.516832,2.1163769 v 6.3500435 c 0,0 1.058345,3.1750186 -1.058336,3.1750186"
       style="fill:none;stroke:#000000;stroke-width:2.11668;stroke-linecap:round;stroke-linejoin:round;stroke-miterlimit:4;stroke-dasharray:none;stroke-opacity:1" /><path
       style="fill:#251304;fill-opacity:1;stroke:none;stroke-width:3.36434;stroke-linecap:round;stroke-linejoin:round;stroke-miterlimit:4;stroke-dasharray:none;stroke-opacity:1"
       d="M 0,-2.2764546e-4 H 38.100209 L 38.10022,2.1163869 c 0,0 0,1.058336 -1.058337,1.058336 H 1.0583461 C 0,3.1747229 0,2.1163969 0,2.1163969 Z"
       id="rect2460" /><path
       style="display:inline;fill:#000000;fill-opacity:1;stroke:#5f5f5f;stroke-width:0;stroke-dasharray:none;stroke-opacity:1"
       d="m 20.160092,9.4666482 0.264041,-0.391273 5.9e-4,-3.170354 -0.261788,-0.379785"
       id="path3" /><rect
       style="fill:#000000;fill-opacity:1;stroke:none;stroke-width:0.610675;stroke-linecap:round"
       id="rect1"
       width="3.9376013"
       height="4.2619328"
       x="-9.4610128"
       y="15.903197"
       transform="rotate(-90)" /><path
       style="fill:#333333;fill-opacity:1;stroke:#000000;stroke-width:1.11774;stroke-linecap:round;stroke-dasharray:none;stroke-opacity:1"
       id="rect48"
       width="26.862263"
       height="46.557053"
       x="434.77365"
       y="622.48401"
       d="m 21.28602,8.5652122 v -2.157827 l 0.299815,-0.310296 h 4.352999 v 2.778419 h -4.352999 z" /><rect
       style="fill:#461e00;fill-opacity:1;stroke:#000000;stroke-width:1.04764;stroke-linecap:round;stroke-dasharray:none;stroke-opacity:1"
       id="rect48-7"
       width="2.5227184"
       height="5.9165502"
       x="-8.7476664"
       y="27.435478"
       transform="rotate(-90)" /><path
       style="fill:#000000;fill-opacity:1;stroke:none;stroke-width:0.961448;stroke-linecap:round;stroke-dasharray:none;stroke-opacity:1"
       id="rect49"
       width="38.365986"
       height="34.193962"
       x="423.02176"
       y="655.91791"
       d="m 24.659787,9.6148412 v -4.257083 h 2.315872 l 0.222722,0.332879 v 3.591325 l -0.222722,0.332879 z" /><rect
       style="fill:#000000;fill-opacity:1;stroke:none;stroke-width:0.588232;stroke-linecap:round;stroke-dasharray:none;stroke-opacity:1"
       id="rect50"
       width="0.56396866"
       height="1.420644"
       x="-7.7741942"
       y="27.662607"
       transform="rotate(-90)" /><rect
       style="fill:#000000;fill-opacity:1;stroke:none;stroke-width:0.560001;stroke-linecap:round;stroke-dasharray:none;stroke-opacity:1"
       id="rect54"
       width="0.97976416"
       height="1.2785797"
       x="-7.9761863"
       y="5.1701431"
       transform="rotate(-90)" /><path
       style="fill:#000000;stroke-width:0;stroke-linecap:round;stroke-dasharray:none"
       d="m 10.504746,5.9798302 5.461045,-0.464404 1.11e-4,0.464404 z"
       id="path2-8" /><path
       style="fill:#000000;stroke-width:1.11829;stroke-linecap:round"
       d="m 10.504747,9.0143302 5.429122,0.442337 1.11e-4,-0.442337 z"
       id="path2-5" /><g
       id="g4"
       transform="matrix(0,-0.14206441,0.14206441,0,-0.0080211,11.464099)"><path
         style="fill:#333333;fill-opacity:1;stroke:#000000;stroke-width:9.38641;stroke-linecap:round;stroke-dasharray:none;stroke-opacity:1"
         id="rect51"
         width="15.941988"
         height="181.85886"
         x="434.2338"
         y="441.27884"
         d="m 437.2338,441.27884 h 9.94198 a 3,3 45 0 1 3,3 V 623.1377 H 434.2338 V 444.27884 a 3,3 135 0 1 3,-3 z"
         transform="matrix(0.88156474,0,0,0.82399896,-361.83215,-336.84735)" /><g
         id="g5"><g
           id="g6"><path
             style="fill:#461e00;fill-opacity:1;stroke-width:7.87173;stroke-linecap:round"
             d="m 25.129145,79.270132 -2.701686,32.748218 3.057462,-0.009 z"
             id="path2-5-6" /><path
             style="fill:#461e00;fill-opacity:1;stroke-width:7.87173;stroke-linecap:round"
             d="m 30.878523,79.228011 2.673598,32.783949 -3.066824,-0.002 z"
             id="path2-5-6-3" /></g></g></g><rect
       style="fill:#333333;fill-opacity:1;stroke:#5f5f5f;stroke-width:0;stroke-dasharray:none;stroke-opacity:1"
       id="rect3"
       width="1.3527955"
       height="3.7018485"
       x="-8.1599989"
       y="21.540955"
       ry="0"
       transform="rotate(-90)" /><path
       style="fill:#333333;fill-opacity:1;stroke:#5f5f5f;stroke-width:0;stroke-dasharray:none;stroke-opacity:1"
       d="m 21.543673,8.1575872 -0.384307,-0.340377 -0.005,-0.667743 0.389995,-0.342307 z"
       id="path4" /><g
       id="g7"
       transform="matrix(0,-0.14206441,0.14206441,0,-0.0080211,11.464099)"><path
         style="fill:#461e00;fill-opacity:1;stroke:#461e00;stroke-width:5.8;stroke-dasharray:none;stroke-opacity:1"
         d="m 27.997287,79.264959 -0.01438,32.747731"
         id="path6" /><path
         style="fill:#461e00;fill-opacity:1;stroke:#461e00;stroke-width:11.124;stroke-linecap:butt;stroke-dasharray:none;stroke-opacity:1"
         d="m 28.00761,111.75185 -0.08305,29.19403"
         id="path6-2" /></g><path
       style="fill:#461e00;fill-opacity:1;stroke:#000000;stroke-width:0.924578;stroke-dasharray:none;stroke-opacity:1"
       d="m 5.7194995,8.3300032 0.00851,-1.749502"
       id="path7" /><path
       style="fill:#461e00;fill-opacity:1;stroke:#5f5f5f;stroke-width:0;stroke-dasharray:none;stroke-opacity:1"
       d="m 19.999112,8.2876302 0.236518,-0.390326 -0.0014,-0.822718 -0.231372,-0.368257"
       id="path3-0" /><path
       style="fill:#461e00;fill-opacity:1;stroke:#000000;stroke-width:0.924578;stroke-dasharray:none;stroke-opacity:1"
       d="m 10.923821,8.3870132 0.0085,-1.776138"
       id="path7-0" /><path
       style="fill:#461e00;fill-opacity:1;stroke:#000000;stroke-width:1.08885;stroke-dasharray:none;stroke-opacity:1"
       d="m 20.777129,8.3776752 0.0021,-1.719367"
       id="path7-0-4" /></g></svg>
