<?xml version="1.0" encoding="UTF-8" standalone="no"?>
<!-- Created with Inkscape (http://www.inkscape.org/) -->

<svg
   width="9.771781mm"
   height="47.093216mm"
   viewBox="0 0 9.771781 47.093216"
   version="1.1"
   id="svg1"
   xmlns="http://www.w3.org/2000/svg"
   xmlns:svg="http://www.w3.org/2000/svg">
  <defs
     id="defs1" />
  <g
     id="layer1"
     transform="translate(-22.48988,-102.65839)">
    <path
       style="fill:#a15a2e;fill-opacity:1;stroke:#000000;stroke-width:1.5875;stroke-linecap:square;stroke-dasharray:none;stroke-opacity:1"
       d="m 29.41912,145.82251 c -1.46817,4.94697 -2.57348,3.40194 -3.56715,-0.14079 l -0.28349,-39.4229 c 1.0594,-2.90435 2.22345,-4.46787 3.85064,-0.0973 z"
       id="path42" />
    <path
       style="fill:#a15a2e;fill-opacity:1;stroke:#000000;stroke-width:1.41014;stroke-linecap:square;stroke-dasharray:none;stroke-opacity:1"
       d="m 30.99934,107.81371 c 0.90549,1.81457 0.62269,3.18067 -0.0257,4.4088 l -7.21589,-0.55824 c -0.5316,-1.30936 -0.89351,-0.93083 -0.0935,-2.94195 z"
       id="path42-1" />
    <path
       style="fill:#a15a2e;fill-opacity:1;stroke:#000000;stroke-width:1.41014;stroke-linecap:square;stroke-dasharray:none;stroke-opacity:1"
       d="m 23.75007,120.13767 c -0.90549,-1.81459 -0.62269,-3.18071 0.0257,-4.40884 l 7.21589,0.55824 c 0.5316,1.30938 0.89351,0.93084 0.0935,2.94197 z"
       id="path42-1-72" />
    <path
       style="fill:#a15a2e;fill-opacity:1;stroke:#000000;stroke-width:1.41014;stroke-linecap:square;stroke-dasharray:none;stroke-opacity:1"
       d="m 23.7522,136.37123 c -0.90549,-1.81459 -0.62269,-3.18071 0.0257,-4.40884 l 7.21589,0.55824 c 0.5316,1.30938 0.89351,0.93084 0.0935,2.94197 z"
       id="path42-1-72-0" />
    <path
       style="fill:#a15a2e;fill-opacity:1;stroke:#000000;stroke-width:1.41014;stroke-linecap:square;stroke-dasharray:none;stroke-opacity:1"
       d="m 30.99934,139.56368 c 0.90549,1.81458 0.62269,3.1807 -0.0257,4.40883 l -7.21589,-0.55824 c -0.5316,-1.30938 -0.89351,-0.93084 -0.0935,-2.94197 z"
       id="path42-1-0" />
    <path
       style="fill:#a15a2e;fill-opacity:1;stroke:#000000;stroke-width:1.41014;stroke-linecap:square;stroke-dasharray:none;stroke-opacity:1"
       d="m 30.99934,123.68867 c 0.90549,1.81458 0.62269,3.1807 -0.0257,4.40883 l -7.21589,-0.55824 c -0.5316,-1.30938 -0.89351,-0.93084 -0.0935,-2.94197 z"
       id="path42-1-7" />
  </g>
</svg>
