<?xml version="1.0" encoding="UTF-8" standalone="no"?>
<svg
   width="64"
   height="64"
   viewBox="0 0 64 64"
   version="1.1"
   xml:space="preserve"
   style="fill-rule:evenodd;clip-rule:evenodd;stroke-linejoin:round;stroke-miterlimit:2;"
   id="svg5"
   sodipodi:docname="part-alphabet-soup-10.svg"
   inkscape:version="1.4.4 (dcaf3e7, 2026-05-05)"
   xmlns:inkscape="http://www.inkscape.org/namespaces/inkscape"
   xmlns:sodipodi="http://sodipodi.sourceforge.net/DTD/sodipodi-0.dtd"
   xmlns="http://www.w3.org/2000/svg"
   xmlns:svg="http://www.w3.org/2000/svg"><sodipodi:namedview
   id="namedview5"
   pagecolor="#ffffff"
   bordercolor="#000000"
   borderopacity="0.25"
   inkscape:showpageshadow="2"
   inkscape:pageopacity="0.0"
   inkscape:pagecheckerboard="0"
   inkscape:deskcolor="#d1d1d1"
   inkscape:zoom="12.609375"
   inkscape:cx="31.960347"
   inkscape:cy="32"
   inkscape:window-width="1920"
   inkscape:window-height="1009"
   inkscape:window-x="-8"
   inkscape:window-y="-8"
   inkscape:window-maximized="1"
   inkscape:current-layer="svg5" />
    <g
   transform="matrix(1,0,0,1,-2.096985,-2.32381)"
   id="g1">
        <path
   d="M26.601,34.324C28.795,28.291 25.633,27.089 28.014,19.342C29.779,13.596 39.793,11.937 43.393,15.879C46.546,19.331 43.851,21.081 46.408,30.976C47.856,36.579 45.623,41.023 44.655,46.798C44.227,49.357 39.158,54.287 36.116,54.04C29.622,53.514 25.614,54.57 23.752,48.153C20.874,38.237 24.646,39.697 26.601,34.324Z"
   style="fill:url(#_Linear1);"
   id="path1" />
    </g>
    <g
   id="H"
   transform="matrix(1,0,0,1,8.569281,-2.793436)">
        <text
   x="17.279px"
   y="49.321px"
   style="font-family:'Calibri-Bold', 'Calibri', sans-serif;font-weight:700;font-size:46.489px;fill:url(#_Linear2);"
   id="text1">J</text>
    </g>
    <defs
   id="defs5">
        <linearGradient
   id="_Linear1"
   x1="0"
   y1="0"
   x2="1"
   y2="0"
   gradientUnits="userSpaceOnUse"
   gradientTransform="matrix(34.754308,0,0,38.387771,15.193302,32.359328)"><stop
     offset="0"
     style="stop-color:rgb(255,75,0);stop-opacity:1"
     id="stop1" /><stop
     offset="1"
     style="stop-color:rgb(232,78,16);stop-opacity:1"
     id="stop2" /></linearGradient>
        <linearGradient
   id="_Linear2"
   x1="0"
   y1="0"
   x2="1"
   y2="0"
   gradientUnits="userSpaceOnUse"
   gradientTransform="matrix(27.042684,0,0,29.645515,17.853633,34.63454)"><stop
     offset="0"
     style="stop-color:rgb(201,138,9);stop-opacity:1"
     id="stop3" /><stop
     offset="0.37"
     style="stop-color:rgb(255,201,117);stop-opacity:1"
     id="stop4" /><stop
     offset="1"
     style="stop-color:rgb(255,155,0);stop-opacity:1"
     id="stop5" /></linearGradient>
    </defs>
</svg>
