<?xml version="1.0" encoding="UTF-8" standalone="no"?>
<svg
   width="64"
   height="64"
   viewBox="0 0 64 64"
   version="1.1"
   xml:space="preserve"
   style="fill-rule:evenodd;clip-rule:evenodd;stroke-linejoin:round;stroke-miterlimit:2;"
   id="svg6"
   sodipodi:docname="part-alphabet-soup-06.svg"
   inkscape:version="1.4.4 (dcaf3e7, 2026-05-05)"
   xmlns:inkscape="http://www.inkscape.org/namespaces/inkscape"
   xmlns:sodipodi="http://sodipodi.sourceforge.net/DTD/sodipodi-0.dtd"
   xmlns="http://www.w3.org/2000/svg"
   xmlns:svg="http://www.w3.org/2000/svg"><sodipodi:namedview
   id="namedview6"
   pagecolor="#ffffff"
   bordercolor="#000000"
   borderopacity="0.25"
   inkscape:showpageshadow="2"
   inkscape:pageopacity="0.0"
   inkscape:pagecheckerboard="0"
   inkscape:deskcolor="#d1d1d1"
   inkscape:zoom="12.609375"
   inkscape:cx="31.960347"
   inkscape:cy="32"
   inkscape:window-width="1920"
   inkscape:window-height="1009"
   inkscape:window-x="-8"
   inkscape:window-y="-8"
   inkscape:window-maximized="1"
   inkscape:current-layer="svg6" />
    <g
   transform="matrix(1,0,0,1,-2.096985,-2.32381)"
   id="g1">
        <path
   d="M19.45,36.949C19.699,31.636 20.217,17.214 24.518,15.496C29.733,13.413 38.344,13.557 42.802,15.308C47.26,17.058 43.549,22.052 46.427,26.449C49.135,30.585 48.885,35.514 49.146,38.769C49.607,44.522 41.911,43.095 39.995,44.226C33.865,47.847 38.932,53.411 31.8,54.948C25.682,56.266 23.115,53.384 21.057,50.385C18.999,47.385 19.178,42.736 19.45,36.949Z"
   style="fill:url(#_Linear1);"
   id="path1" />
    </g>
    <g
   transform="matrix(1,0,0,1,3.280303,-2.702638)"
   id="g2">
        <text
   x="17.279px"
   y="49.321px"
   style="font-family:'Calibri-Bold', 'Calibri', sans-serif;font-weight:700;font-size:46.489px;fill:url(#_Linear2);"
   id="text1">F</text>
    </g>
    <defs
   id="defs6">
        <linearGradient
   id="_Linear1"
   x1="0"
   y1="0"
   x2="1"
   y2="0"
   gradientUnits="userSpaceOnUse"
   gradientTransform="matrix(34.754308,0,0,38.387771,15.193302,32.359328)"><stop
     offset="0"
     style="stop-color:rgb(255,75,0);stop-opacity:1"
     id="stop2" /><stop
     offset="1"
     style="stop-color:rgb(232,78,16);stop-opacity:1"
     id="stop3" /></linearGradient>
        <linearGradient
   id="_Linear2"
   x1="0"
   y1="0"
   x2="1"
   y2="0"
   gradientUnits="userSpaceOnUse"
   gradientTransform="matrix(27.042684,0,0,29.645515,17.853633,34.63454)"><stop
     offset="0"
     style="stop-color:rgb(201,138,9);stop-opacity:1"
     id="stop4" /><stop
     offset="0.37"
     style="stop-color:rgb(255,201,117);stop-opacity:1"
     id="stop5" /><stop
     offset="1"
     style="stop-color:rgb(255,155,0);stop-opacity:1"
     id="stop6" /></linearGradient>
    </defs>
</svg>
