<svg width="128" height="128" viewBox="0 0 128 128" fill="none" xmlns="http://www.w3.org/2000/svg">
<path fill-rule="evenodd" clip-rule="evenodd" d="M113.462 7.57495L115.289 6.28763L113.622 5.09982L114.423 4.57031L117 6.44393L112.5 10.0003L113.462 7.57495Z" fill="#323232"/>
<path d="M113.462 7.57495L115.289 6.28763L113.622 5.09982M113.622 5.09982L114.423 4.57031L117 6.44393L112.5 10.0003L113.462 7.57495C112.801 7.54877 111.992 6.95516 111.5 6.50129L113.622 5.09982Z" stroke="#323232" stroke-linejoin="round"/>
<path fill-rule="evenodd" clip-rule="evenodd" d="M6.58349 107.006L6.68734 107.146C7.32822 108.007 7.92641 108.81 8.5 109.574C11.7845 104.609 13.5 101.895 19 96.8951L26.5 103.395C26.5 103.395 19.5 112 16 118.651C16.8309 119.541 17.7375 120.483 18.7504 121.506L34.5 99.0066C34.6417 98.825 34.7798 98.6465 34.915 98.4717C36.342 96.6272 37.4454 95.2009 39 95.0066C38 90.006 36.5591 85.3573 42.5 78.5C42.9332 78 43.5913 77.9067 43.5 78.5C42.5 85 43.0159 88.3818 46.8479 93.283C47.3572 93.0301 47.6122 92.7684 47.5 92.5066C45.4117 87.6326 43.5 82.0066 47.5 78.0066L51.5 74.0066L46.5 68.5066C42.3611 71.8429 41.2436 73.5648 40.5 76.5066C39.0677 81.373 36 84.5066 32 84.5066C29.1566 84.5066 16.3501 94.9724 6.58349 107.006ZM37.5 84.006C35.5859 85.7169 34.3479 86.002 32 86.006C31.4346 87.3234 31.001 88.3877 31.5 89.506C32.2277 91.1367 33.5 92.006 36 91.006C36.3117 90.8813 37.3224 86.3365 37.5 84.006Z" fill="white"/>
<path fill-rule="evenodd" clip-rule="evenodd" d="M11.75 117.762C9.32437 115.065 7.07437 112.563 5 109.007C5.51717 108.336 6.04572 107.669 6.58349 107.006L6.68734 107.146C7.32822 108.007 7.92641 108.81 8.5 109.574C10.9738 112.869 12.99 115.424 16 118.651C16.8309 119.541 17.7375 120.483 18.7504 121.506L17 124.007C15.167 121.563 13.417 119.616 11.75 117.762Z" fill="#323232"/>
<path fill-rule="evenodd" clip-rule="evenodd" d="M87.8186 40.5L87.3005 35L98.5 25.6672V30.7089L87.8186 40.5Z" fill="white"/>
<path fill-rule="evenodd" clip-rule="evenodd" d="M54 71.5L49.5 66.5L87.3005 35L58 60.5C56.5 62 56.8849 65.8957 58 67.8334L54 71.5Z" fill="white"/>
<path fill-rule="evenodd" clip-rule="evenodd" d="M98.5 30.7089V25.6672L100.5 24.0006C102 22.501 103.5 25.9998 102 27.5006L98.5 30.7089Z" fill="#7E7E7E"/>
<path fill-rule="evenodd" clip-rule="evenodd" d="M87.3005 35L87.8186 40.5L58 67.8334C56.8849 65.8957 56.5 62 58 60.5L87.3005 35Z" fill="#7E7E7E"/>
<path fill-rule="evenodd" clip-rule="evenodd" d="M43.5 78.5C42.5 85 43.0159 88.3818 46.8479 93.283C45.4118 93.9959 41.9529 94.6375 39 95.0066C38 90.006 36.5591 85.3573 42.5 78.5C42.9332 78 43.5913 77.9067 43.5 78.5Z" fill="#7E7E7E"/>
<path fill-rule="evenodd" clip-rule="evenodd" d="M37.5 84.006C35.5859 85.7169 34.3479 86.002 32 86.006C31.4346 87.3234 31.001 88.3877 31.5 89.506C32.2277 91.1367 33.5 92.006 36 91.006C36.3117 90.8813 37.3224 86.3365 37.5 84.006Z" fill="#7E7E7E"/>
<path fill-rule="evenodd" clip-rule="evenodd" d="M8.83458 109.068C11.9074 104.419 13.6898 101.723 19 96.8951L26.5 103.395C26.5 103.395 19.5 112 16 118.651C12.99 115.424 10.9738 112.869 8.5 109.574C8.61332 109.403 8.72478 109.234 8.83458 109.068Z" fill="white"/>
<path fill-rule="evenodd" clip-rule="evenodd" d="M11.75 117.763C9.32437 115.065 7.07437 112.563 5 109.007C5.38731 108.505 5.781 108.004 6.18017 107.506L6.2044 107.538C10.415 113.025 12.7843 116.113 18.7504 121.506L17 124.007C15.167 121.563 13.417 119.617 11.75 117.763Z" fill="#323232"/>
<path fill-rule="evenodd" clip-rule="evenodd" d="M66.34 49.7567C67.0096 50.2856 67.7801 51.2668 67.7801 51.2668L60.5 57.3335C60.5 56.5 60.5 56 60 55.5C59.6843 55.1526 59 54 59.5 53.5L65 49C65.171 48.829 65.9919 49.4817 66.34 49.7567Z" fill="#323232"/>
<path fill-rule="evenodd" clip-rule="evenodd" d="M47.75 64.25L50.1397 62.6736L52.5 61.6673L52.7607 63.967L50 66.2563L47.75 64.25Z" fill="#323232"/>
<path fill-rule="evenodd" clip-rule="evenodd" d="M47.75 64.25L50 66.2563L49 67L49.2998 65.632L48.5 64.9188L47.75 64.25Z" fill="#323232"/>
<path fill-rule="evenodd" clip-rule="evenodd" d="M67.7801 51.2668C67.7801 51.2668 67.0096 50.2856 66.34 49.7567L85.5 34.2838L89.5 31.0535L114 11.2681L120.842 5.74282L123 4L124 5.74282L102 24C101.609 23.2047 101.213 23.2874 100.5 24.0006L67.7801 51.2668Z" fill="#323232"/>
<path d="M24.7004 113.006L22.2504 116.506L18.7504 121.506L17 124.007C15.167 121.563 13.417 119.617 11.75 117.763C9.32437 115.065 7.07437 112.563 5 109.007C5.38731 108.505 5.781 108.004 6.18017 107.506M6.18017 107.506L6.2044 107.538M6.18017 107.506C15.9941 95.2641 29.1173 84.5069 32 84.5069C36 84.5069 39.0677 81.3733 40.5 76.5069C41.2436 73.5651 42.3611 71.8432 46.5 68.5069L51.5 74.0069L51.0006 74.5063L50.2643 75.2426L48.5 77.0063C48.2429 77.2634 47.0102 78.5279 46.8004 78.7978C46.4967 79.1885 46.241 79.592 46.0287 80.0063C45.8069 80.4392 45.6324 80.8839 45.5 81.3382C44.4847 84.8223 45.9433 88.8735 47.5 92.5069C47.9285 93.5069 43 94.5069 39 95.0069C37.2981 95.2196 36.1369 96.9088 34.5 99.0069L24.7004 113.006M18.7504 121.506C12.7843 116.113 10.415 113.025 6.2044 107.538C6.19633 107.527 6.18826 107.517 6.18017 107.506M66.34 49.7567C67.0096 50.2856 67.7801 51.2668 67.7801 51.2668M66.34 49.7567C65.9919 49.4817 65.171 48.829 65 49L59.5 53.5C59 54 59.6843 55.1526 60 55.5M89.5 31.0535L85.5 34.2838L66.34 49.7567M67.7801 51.2668L60.5 57.3335M67.7801 51.2668L100.5 24.0006C101.213 23.2874 101.609 23.2047 102 24M60.5 57.3335C60.5 56.5 60.5 56 60 55.5M49 67L50 66.2563L52.7607 63.967L60.5 57.3335M60 55.5L52.5 61.6673M41.1344 72C40.9498 71.3641 40.8902 70.6098 41.5 70L47.75 64.25L50.1397 62.6736L52.5 61.6673M47.75 64.25L50 66.2563M47.75 64.25L48.5 64.9188M52.5 61.6673L52.7607 63.967M66.0339 60.5L55.6798 70L53.5 72L49 67L49.2998 65.632L48.5 64.9188M49.2998 65.632L41.5 73.0063C41.422 72.7654 41.2526 72.4069 41.1344 72M89.5 31.0535L87.7927 30.7384L86.5427 31.7384L85.2927 32.7384L85.5 34.2838M89.5 31.0535L114 11.2681L120.842 5.74282L123 4L124 5.74282L102 24M102 24C102.431 24.877 102.786 26.7135 102 27.5006L94.2302 34.6295M26.1002 115.506L25.6668 114.756L24.7004 113.006M22.2504 116.506L24.5335 118.186L26.1002 115.506M26.1002 115.506C32 123.506 51.2643 103.5 66.34 94.0006C84.5916 82.5 81 59 97.5 36L98.7894 33.9588L98 31.1706M94.2302 34.6295L66.0339 60.5M94.2302 34.6295L97.5 36M55.6798 70H57L65.5 62L66.0339 60.5M25.6668 114.756C26.413 109.16 47.1592 107.284 64.4334 89.25C81.7076 71.2159 83.4416 46.6425 96 35.5M86.5427 31.7384L85.5 30.5M41.1344 72L48.5 64.9188" stroke="#323232" stroke-width="2" stroke-linecap="round" stroke-linejoin="round"/>
<circle cx="53" cy="68" r="0.5" fill="white" stroke="#323232" stroke-linejoin="round"/>
<circle cx="47" cy="75" r="0.5" fill="#323232" stroke="#323232" stroke-linejoin="round"/>
<circle cx="61.5" cy="54.5" r="0.5" fill="white"/>
<path d="M48.5 78C48.714 78.9094 48.9887 79.3767 50 80M48 78.5L50 80C48.9109 79.6694 48.0152 79.4421 47.5 79" stroke="#323232" stroke-linejoin="round"/>
<path d="M51 75.5L52.3571 76.5M46 82.5L48.25 82.25M51.5 74.5C51.7265 75.3413 51.9043 75.7699 52.3571 76.5L53.5 78.5C54 79.5 52 82 50.5 82L48.25 82.25M48.25 82.25C47.1415 82.1519 47 81.5 46.5 80.5M48.25 82.25C47 82.5 46 83.5 45.5 84M48.25 82.25L46 82M52.3571 76.5C51.6275 76.0384 51 76 50 76" stroke="#323232" stroke-linejoin="round"/>
<path fill-rule="evenodd" clip-rule="evenodd" d="M20.1741 109.277C19.9121 109.57 18.1863 108.553 17.6008 108.029L14.0874 104.885L15.1352 103.714L18.6486 106.858C19.2341 107.382 20.436 108.984 20.1741 109.277Z" fill="#323232" stroke="#323232" stroke-width="0.785715" stroke-linejoin="round"/>
<path fill-rule="evenodd" clip-rule="evenodd" d="M18.5999 111.636C18.3366 111.927 16.6154 110.903 16.0323 110.376L12.5333 107.217L13.5865 106.05L17.0854 109.21C17.6686 109.736 18.8632 111.344 18.5999 111.636Z" fill="#323232" stroke="#323232" stroke-width="0.785715" stroke-linejoin="round"/>
<path fill-rule="evenodd" clip-rule="evenodd" d="M17.0229 113.998C16.7568 114.287 15.0457 113.245 14.4678 112.713L11.0001 109.519L12.0647 108.363L15.5324 111.557C16.1103 112.089 17.289 113.709 17.0229 113.998Z" fill="#323232" stroke="#323232" stroke-width="0.785715" stroke-linejoin="round"/>
<path fill-rule="evenodd" clip-rule="evenodd" d="M14.5358 116.345C14.0077 115.779 13.5187 115.239 13.0558 114.713C12.6868 114.294 12.3346 113.884 11.9925 113.477C13.2027 109.696 15.4977 107.604 19.0536 103.517L20.3304 104.794L21.6072 106.071C20.0358 108.035 15.9137 112.324 14.5358 116.345Z" fill="#7E7E7E"/>
<path d="M11.9925 113.477C13.2027 109.696 15.4977 107.604 19.0536 103.517M11.9925 113.477L11 112.356M15.3214 117.071L14.5358 116.345C14.0077 115.779 13.5187 115.239 13.0558 114.713C12.6868 114.294 12.3346 113.884 11.9925 113.477M19.0536 103.517L18.4643 102.928M22 106.463L21.6072 106.071L20.3304 104.794L19.0536 103.517M14.5358 116.345C15.9137 112.324 20.0358 108.035 21.6072 106.071M13.0558 114.713C14.5357 110.785 16.3685 108.636 20.3304 104.794" stroke="#323232" stroke-width="0.785715" stroke-linecap="round" stroke-linejoin="round"/>
<path d="M39 73C39 73.1726 38.9781 73.3402 38.937 73.5C38.715 74.3626 37.9319 75 37 75C35.8954 75 35 74.1046 35 73C35 71.8954 35.8954 71 37 71C37.5973 71 38.1335 71.2619 38.5 71.6771C38.8112 72.0297 39 72.4928 39 73Z" fill="#323232"/>
<path fill-rule="evenodd" clip-rule="evenodd" d="M39 73C39 72.4928 38.8112 72.0297 38.5 71.6771L42 71V73L38.937 73.5C38.9781 73.3402 39 73.1726 39 73Z" fill="#323232"/>
</svg>
